G75*
%MOIN*%
%OFA0B0*%
%FSLAX24Y24*%
%IPPOS*%
%LPD*%
%AMOC8*
5,1,8,0,0,1.08239X$1,22.5*
%
%ADD10C,0.0000*%
%ADD11C,0.0030*%
%ADD12C,0.0050*%
%ADD13C,0.0060*%
%ADD14C,0.0040*%
D10*
X000100Y000240D02*
X000100Y004177D01*
X014667Y004177D01*
X014667Y000240D01*
X000100Y000240D01*
X003394Y002208D02*
X003396Y002258D01*
X003402Y002309D01*
X003412Y002358D01*
X003425Y002407D01*
X003443Y002454D01*
X003464Y002500D01*
X003489Y002544D01*
X003517Y002586D01*
X003548Y002626D01*
X003582Y002663D01*
X003619Y002697D01*
X003659Y002728D01*
X003701Y002756D01*
X003745Y002781D01*
X003791Y002802D01*
X003838Y002820D01*
X003887Y002833D01*
X003936Y002843D01*
X003987Y002849D01*
X004037Y002851D01*
X004087Y002849D01*
X004138Y002843D01*
X004187Y002833D01*
X004236Y002820D01*
X004283Y002802D01*
X004329Y002781D01*
X004373Y002756D01*
X004415Y002728D01*
X004455Y002697D01*
X004492Y002663D01*
X004526Y002626D01*
X004557Y002586D01*
X004585Y002544D01*
X004610Y002500D01*
X004631Y002454D01*
X004649Y002407D01*
X004662Y002358D01*
X004672Y002309D01*
X004678Y002258D01*
X004680Y002208D01*
X004678Y002158D01*
X004672Y002107D01*
X004662Y002058D01*
X004649Y002009D01*
X004631Y001962D01*
X004610Y001916D01*
X004585Y001872D01*
X004557Y001830D01*
X004526Y001790D01*
X004492Y001753D01*
X004455Y001719D01*
X004415Y001688D01*
X004373Y001660D01*
X004329Y001635D01*
X004283Y001614D01*
X004236Y001596D01*
X004187Y001583D01*
X004138Y001573D01*
X004087Y001567D01*
X004037Y001565D01*
X003987Y001567D01*
X003936Y001573D01*
X003887Y001583D01*
X003838Y001596D01*
X003791Y001614D01*
X003745Y001635D01*
X003701Y001660D01*
X003659Y001688D01*
X003619Y001719D01*
X003582Y001753D01*
X003548Y001790D01*
X003517Y001830D01*
X003489Y001872D01*
X003464Y001916D01*
X003443Y001962D01*
X003425Y002009D01*
X003412Y002058D01*
X003402Y002107D01*
X003396Y002158D01*
X003394Y002208D01*
X010087Y002208D02*
X010089Y002258D01*
X010095Y002309D01*
X010105Y002358D01*
X010118Y002407D01*
X010136Y002454D01*
X010157Y002500D01*
X010182Y002544D01*
X010210Y002586D01*
X010241Y002626D01*
X010275Y002663D01*
X010312Y002697D01*
X010352Y002728D01*
X010394Y002756D01*
X010438Y002781D01*
X010484Y002802D01*
X010531Y002820D01*
X010580Y002833D01*
X010629Y002843D01*
X010680Y002849D01*
X010730Y002851D01*
X010780Y002849D01*
X010831Y002843D01*
X010880Y002833D01*
X010929Y002820D01*
X010976Y002802D01*
X011022Y002781D01*
X011066Y002756D01*
X011108Y002728D01*
X011148Y002697D01*
X011185Y002663D01*
X011219Y002626D01*
X011250Y002586D01*
X011278Y002544D01*
X011303Y002500D01*
X011324Y002454D01*
X011342Y002407D01*
X011355Y002358D01*
X011365Y002309D01*
X011371Y002258D01*
X011373Y002208D01*
X011371Y002158D01*
X011365Y002107D01*
X011355Y002058D01*
X011342Y002009D01*
X011324Y001962D01*
X011303Y001916D01*
X011278Y001872D01*
X011250Y001830D01*
X011219Y001790D01*
X011185Y001753D01*
X011148Y001719D01*
X011108Y001688D01*
X011066Y001660D01*
X011022Y001635D01*
X010976Y001614D01*
X010929Y001596D01*
X010880Y001583D01*
X010831Y001573D01*
X010780Y001567D01*
X010730Y001565D01*
X010680Y001567D01*
X010629Y001573D01*
X010580Y001583D01*
X010531Y001596D01*
X010484Y001614D01*
X010438Y001635D01*
X010394Y001660D01*
X010352Y001688D01*
X010312Y001719D01*
X010275Y001753D01*
X010241Y001790D01*
X010210Y001830D01*
X010182Y001872D01*
X010157Y001916D01*
X010136Y001962D01*
X010118Y002009D01*
X010105Y002058D01*
X010095Y002107D01*
X010089Y002158D01*
X010087Y002208D01*
D11*
X007226Y002026D02*
X006979Y002026D01*
X007103Y002026D02*
X007103Y002397D01*
X006979Y002273D01*
X006858Y002397D02*
X006858Y002088D01*
X006796Y002026D01*
X006673Y002026D01*
X006611Y002088D01*
X006611Y002397D01*
X006521Y003798D02*
X006582Y003860D01*
X006521Y003798D02*
X006397Y003798D01*
X006335Y003860D01*
X006335Y004107D01*
X006397Y004168D01*
X006521Y004168D01*
X006582Y004107D01*
X006704Y004045D02*
X006827Y004168D01*
X006827Y003798D01*
X006704Y003798D02*
X006951Y003798D01*
X002699Y003798D02*
X002452Y003798D01*
X002575Y003798D02*
X002575Y004168D01*
X002452Y004045D01*
X002330Y004168D02*
X002207Y004168D01*
X002269Y004168D02*
X002269Y003860D01*
X002207Y003798D01*
X002145Y003798D01*
X002084Y003860D01*
X012713Y003860D02*
X012775Y003798D01*
X012837Y003798D01*
X012899Y003860D01*
X012899Y004168D01*
X012960Y004168D02*
X012837Y004168D01*
X013082Y004107D02*
X013143Y004168D01*
X013267Y004168D01*
X013329Y004107D01*
X013329Y004045D01*
X013082Y003798D01*
X013329Y003798D01*
X007080Y000557D02*
X007018Y000619D01*
X006895Y000619D01*
X006833Y000557D01*
X006712Y000557D02*
X006650Y000619D01*
X006527Y000619D01*
X006465Y000557D01*
X006465Y000310D01*
X006527Y000248D01*
X006650Y000248D01*
X006712Y000310D01*
X006833Y000248D02*
X007080Y000495D01*
X007080Y000557D01*
X007080Y000248D02*
X006833Y000248D01*
D12*
X007293Y001708D02*
X006293Y001708D01*
X006293Y002708D01*
X007293Y002708D01*
X007293Y001708D01*
X012502Y000633D02*
X014470Y000633D01*
X014470Y003783D01*
X012502Y003783D01*
X012502Y000633D01*
X001773Y000732D02*
X000139Y000732D01*
X000139Y003685D01*
X001773Y003685D01*
X001773Y000732D01*
D13*
X007671Y001588D02*
X007671Y002828D01*
X008671Y002828D02*
X008671Y001588D01*
D14*
X008585Y003409D02*
X008891Y003409D01*
X009045Y003409D02*
X009352Y003409D01*
X009198Y003409D02*
X009198Y003870D01*
X009045Y003716D01*
X008585Y003870D02*
X008585Y003409D01*
M02*
