G75*
%MOIN*%
%OFA0B0*%
%FSLAX24Y24*%
%IPPOS*%
%LPD*%
%AMOC8*
5,1,8,0,0,1.08239X$1,22.5*
%
%ADD10R,0.0531X0.0157*%
%ADD11R,0.0610X0.0591*%
%ADD12C,0.0679*%
%ADD13C,0.0502*%
%ADD14R,0.0433X0.0236*%
%ADD15R,0.0512X0.0630*%
%ADD16R,0.0866X0.0630*%
%ADD17C,0.0472*%
%ADD18C,0.0100*%
%ADD19C,0.0160*%
%ADD20C,0.0376*%
D10*
X001773Y001696D03*
X001773Y001952D03*
X001773Y002208D03*
X001773Y002464D03*
X001773Y002720D03*
D11*
X000710Y002602D03*
X000710Y001814D03*
D12*
X000710Y000830D03*
X000710Y003586D03*
D13*
X001773Y003192D03*
X001773Y001224D03*
D14*
X006301Y001834D03*
X007285Y001834D03*
X006301Y002208D03*
X006301Y002582D03*
X007285Y002582D03*
D15*
X007108Y003192D03*
X006320Y003192D03*
X006399Y001224D03*
X007187Y001224D03*
D16*
X008171Y001657D03*
X008171Y002759D03*
D17*
X014076Y002996D03*
X014076Y002208D03*
X014076Y001421D03*
D18*
X000965Y000449D02*
X000942Y000440D01*
X006750Y000440D01*
X006750Y001582D01*
X006868Y001699D01*
X006959Y001699D01*
X006959Y001998D01*
X007023Y002062D01*
X007459Y002062D01*
X007459Y002133D01*
X007521Y002195D01*
X007106Y002205D01*
X007025Y002205D01*
X007023Y002207D01*
X007020Y002207D01*
X006965Y002265D01*
X006908Y002322D01*
X006908Y002325D01*
X006906Y002327D01*
X006908Y002407D01*
X006908Y002712D01*
X006902Y002786D01*
X006908Y002793D01*
X006908Y002803D01*
X006961Y002855D01*
X007009Y002912D01*
X007018Y002913D01*
X007025Y002920D01*
X007100Y002920D01*
X007396Y002945D01*
X007420Y003205D01*
X007423Y003282D01*
X007427Y003286D01*
X007428Y003293D01*
X007487Y003342D01*
X007544Y003395D01*
X007550Y003395D01*
X007555Y003399D01*
X007632Y003392D01*
X008804Y003353D01*
X008884Y003353D01*
X008886Y003350D01*
X008890Y003350D01*
X008945Y003292D01*
X009001Y003236D01*
X009001Y003232D01*
X009003Y003229D01*
X009001Y003150D01*
X009001Y002446D01*
X009003Y002444D01*
X009001Y002363D01*
X009001Y002283D01*
X008999Y002281D01*
X008999Y002278D01*
X008970Y002251D01*
X009041Y002251D01*
X009138Y002154D01*
X009138Y002448D01*
X009280Y002907D01*
X009550Y003303D01*
X009550Y003303D01*
X009925Y003602D01*
X009925Y003602D01*
X010102Y003672D01*
X006749Y003672D01*
X006720Y002866D01*
X006725Y002859D01*
X006717Y002784D01*
X006714Y002709D01*
X006708Y002703D01*
X006678Y002433D01*
X006678Y002362D01*
X006669Y002353D01*
X006668Y002340D01*
X006612Y002295D01*
X006561Y002244D01*
X006548Y002244D01*
X006538Y002236D01*
X006467Y002244D01*
X005706Y002244D01*
X005626Y002325D01*
X005643Y002208D01*
X005584Y001815D01*
X005640Y001870D01*
X005749Y001916D01*
X005838Y001916D01*
X005946Y002024D01*
X006001Y002024D01*
X006039Y002062D01*
X006563Y002062D01*
X006627Y001998D01*
X006627Y001670D01*
X006563Y001606D01*
X006107Y001606D01*
X006107Y001558D01*
X006061Y001449D01*
X005978Y001365D01*
X005868Y001319D01*
X005749Y001319D01*
X005640Y001365D01*
X005556Y001449D01*
X005511Y001558D01*
X005511Y001607D01*
X005364Y001303D01*
X005364Y001303D01*
X005039Y000952D01*
X005039Y000952D01*
X005039Y000952D01*
X004624Y000713D01*
X004624Y000713D01*
X004157Y000606D01*
X004157Y000606D01*
X003680Y000642D01*
X003680Y000642D01*
X003234Y000817D01*
X003234Y000817D01*
X002859Y001116D01*
X002859Y001116D01*
X002590Y001511D01*
X002590Y001511D01*
X002449Y001969D01*
X002449Y002448D01*
X002585Y002889D01*
X002377Y002681D01*
X002265Y002569D01*
X002149Y002569D01*
X002149Y002340D01*
X002145Y002336D01*
X002149Y002332D01*
X002149Y002084D01*
X002145Y002080D01*
X002149Y002077D01*
X002149Y001828D01*
X002085Y001763D01*
X001462Y001763D01*
X001397Y001828D01*
X001397Y002077D01*
X001401Y002080D01*
X001397Y002084D01*
X001397Y002332D01*
X001401Y002336D01*
X001397Y002340D01*
X001397Y002588D01*
X001401Y002592D01*
X001397Y002596D01*
X001397Y002844D01*
X001462Y002909D01*
X001546Y002909D01*
X001467Y002988D01*
X001412Y003121D01*
X001412Y003264D01*
X001467Y003397D01*
X001569Y003498D01*
X001701Y003553D01*
X001845Y003553D01*
X001978Y003498D01*
X002079Y003397D01*
X002134Y003264D01*
X002134Y003121D01*
X002079Y002988D01*
X002041Y002949D01*
X002108Y002949D01*
X002745Y003586D01*
X002745Y003960D01*
X002761Y003977D01*
X000942Y003977D01*
X000965Y003967D01*
X001091Y003841D01*
X001160Y003676D01*
X001160Y003497D01*
X001091Y003331D01*
X000965Y003205D01*
X000800Y003137D01*
X000621Y003137D01*
X000456Y003205D01*
X000329Y003331D01*
X000300Y003402D01*
X000300Y002948D01*
X000360Y003007D01*
X001061Y003007D01*
X001125Y002943D01*
X001125Y002261D01*
X001072Y002208D01*
X001125Y002155D01*
X001125Y001474D01*
X001061Y001409D01*
X000360Y001409D01*
X000300Y001469D01*
X000300Y001015D01*
X000329Y001085D01*
X000456Y001211D01*
X000621Y001280D01*
X000800Y001280D01*
X000965Y001211D01*
X001091Y001085D01*
X001160Y000920D01*
X001160Y000741D01*
X001091Y000576D01*
X000965Y000449D01*
X001051Y000535D02*
X006750Y000535D01*
X006950Y000535D02*
X008958Y000535D01*
X008958Y000634D02*
X006950Y000634D01*
X006750Y000634D02*
X004277Y000634D01*
X004657Y000732D02*
X006750Y000732D01*
X006950Y000732D02*
X008958Y000732D01*
X008958Y000831D02*
X006950Y000831D01*
X006750Y000831D02*
X004828Y000831D01*
X004999Y000929D02*
X006750Y000929D01*
X006950Y000929D02*
X008958Y000929D01*
X008958Y001028D02*
X006950Y001028D01*
X006750Y001028D02*
X005109Y001028D01*
X005200Y001126D02*
X006750Y001126D01*
X006950Y001126D02*
X008958Y001126D01*
X008958Y001225D02*
X006950Y001225D01*
X006750Y001225D02*
X005291Y001225D01*
X005374Y001323D02*
X005741Y001323D01*
X005877Y001323D02*
X006750Y001323D01*
X006950Y001323D02*
X008958Y001323D01*
X008958Y001422D02*
X006950Y001422D01*
X006950Y001499D02*
X007659Y001499D01*
X007659Y002051D01*
X008958Y002051D01*
X008958Y000440D01*
X006950Y000440D01*
X006950Y001499D01*
X006750Y001520D02*
X006091Y001520D01*
X006034Y001422D02*
X006750Y001422D01*
X006787Y001619D02*
X006576Y001619D01*
X006627Y001717D02*
X006959Y001717D01*
X006959Y001816D02*
X006627Y001816D01*
X006627Y001914D02*
X006959Y001914D01*
X006973Y002013D02*
X006612Y002013D01*
X007018Y002210D02*
X005643Y002210D01*
X005642Y002308D02*
X005628Y002308D01*
X005789Y002444D02*
X005693Y002540D01*
X005668Y002711D01*
X005447Y003169D01*
X005447Y003169D01*
X005101Y003542D01*
X005101Y003542D01*
X004660Y003797D01*
X004203Y003901D01*
X006557Y003901D01*
X006517Y002799D01*
X006481Y002476D01*
X006022Y002476D01*
X005990Y002444D01*
X005789Y002444D01*
X005728Y002505D02*
X006485Y002505D01*
X006496Y002604D02*
X005684Y002604D01*
X005669Y002702D02*
X006507Y002702D01*
X006517Y002801D02*
X005624Y002801D01*
X005668Y002711D02*
X005668Y002711D01*
X005577Y002899D02*
X006521Y002899D01*
X006524Y002998D02*
X005530Y002998D01*
X005482Y003096D02*
X006528Y003096D01*
X006531Y003195D02*
X005423Y003195D01*
X005332Y003293D02*
X006535Y003293D01*
X006735Y003293D02*
X007428Y003293D01*
X007419Y003195D02*
X006732Y003195D01*
X006728Y003096D02*
X007410Y003096D01*
X007611Y003096D02*
X008801Y003096D01*
X008801Y003153D02*
X008801Y002366D01*
X007108Y002405D01*
X007108Y002720D01*
X007198Y002727D01*
X007426Y002727D01*
X007447Y002748D01*
X007580Y002759D01*
X007620Y003192D01*
X007785Y003187D01*
X007828Y003169D01*
X007963Y003169D01*
X007989Y003180D01*
X008801Y003153D01*
X009002Y003195D02*
X009476Y003195D01*
X009543Y003293D02*
X008944Y003293D01*
X009001Y003096D02*
X009409Y003096D01*
X009342Y002998D02*
X009001Y002998D01*
X008801Y002998D02*
X007602Y002998D01*
X007593Y002899D02*
X008801Y002899D01*
X009001Y002899D02*
X009277Y002899D01*
X009247Y002801D02*
X009001Y002801D01*
X008801Y002801D02*
X007584Y002801D01*
X007401Y002998D02*
X006725Y002998D01*
X006721Y002899D02*
X006998Y002899D01*
X006908Y002801D02*
X006719Y002801D01*
X006708Y002702D02*
X006908Y002702D01*
X007108Y002702D02*
X008801Y002702D01*
X009001Y002702D02*
X009217Y002702D01*
X009186Y002604D02*
X009001Y002604D01*
X008801Y002604D02*
X007108Y002604D01*
X006908Y002604D02*
X006697Y002604D01*
X006686Y002505D02*
X006908Y002505D01*
X007108Y002505D02*
X008801Y002505D01*
X009001Y002505D02*
X009156Y002505D01*
X009138Y002407D02*
X009002Y002407D01*
X008801Y002407D02*
X007108Y002407D01*
X006908Y002407D02*
X006678Y002407D01*
X006628Y002308D02*
X006922Y002308D01*
X007459Y002111D02*
X005629Y002111D01*
X005614Y002013D02*
X005935Y002013D01*
X005746Y001914D02*
X005599Y001914D01*
X005585Y001816D02*
X005584Y001816D01*
X005526Y001520D02*
X005469Y001520D01*
X005421Y001422D02*
X005583Y001422D01*
X007187Y001224D02*
X007285Y001322D01*
X007285Y001834D01*
X007659Y001816D02*
X008958Y001816D01*
X008958Y001914D02*
X007659Y001914D01*
X007659Y002013D02*
X008958Y002013D01*
X009082Y002210D02*
X009138Y002210D01*
X009138Y002308D02*
X009001Y002308D01*
X008958Y001717D02*
X007659Y001717D01*
X007659Y001619D02*
X008958Y001619D01*
X008958Y001520D02*
X007659Y001520D01*
X011378Y000745D02*
X011734Y000950D01*
X012060Y001301D01*
X012060Y001301D01*
X012268Y001734D01*
X012340Y002208D01*
X012268Y002683D01*
X012209Y002806D01*
X013780Y002806D01*
X013783Y002799D01*
X013880Y002702D01*
X012259Y002702D01*
X012268Y002683D02*
X012268Y002683D01*
X012280Y002604D02*
X014467Y002604D01*
X014467Y002505D02*
X014264Y002505D01*
X014272Y002502D02*
X014145Y002554D01*
X014008Y002554D01*
X013880Y002502D01*
X013783Y002404D01*
X013730Y002277D01*
X013730Y002139D01*
X013733Y002133D01*
X012344Y000745D01*
X011378Y000745D01*
X011527Y000831D02*
X012430Y000831D01*
X012529Y000929D02*
X011698Y000929D01*
X011734Y000950D02*
X011734Y000950D01*
X011806Y001028D02*
X012627Y001028D01*
X012726Y001126D02*
X011897Y001126D01*
X011989Y001225D02*
X012824Y001225D01*
X012923Y001323D02*
X012070Y001323D01*
X012118Y001422D02*
X013021Y001422D01*
X013120Y001520D02*
X012165Y001520D01*
X012213Y001619D02*
X013218Y001619D01*
X013317Y001717D02*
X012260Y001717D01*
X012268Y001734D02*
X012268Y001734D01*
X012280Y001816D02*
X013415Y001816D01*
X013514Y001914D02*
X012295Y001914D01*
X012310Y002013D02*
X013612Y002013D01*
X013711Y002111D02*
X012325Y002111D01*
X012339Y002210D02*
X013730Y002210D01*
X013743Y002308D02*
X012325Y002308D01*
X012310Y002407D02*
X013785Y002407D01*
X013889Y002505D02*
X012295Y002505D01*
X012211Y002801D02*
X013782Y002801D01*
X013880Y002702D02*
X014008Y002649D01*
X014145Y002649D01*
X014272Y002702D01*
X014370Y002799D01*
X014423Y002927D01*
X014423Y003064D01*
X014370Y003192D01*
X014272Y003289D01*
X014145Y003342D01*
X014008Y003342D01*
X013880Y003289D01*
X013783Y003192D01*
X013780Y003186D01*
X012344Y003186D01*
X011589Y003940D01*
X011553Y003977D01*
X014467Y003977D01*
X014467Y000440D01*
X012577Y000440D01*
X012613Y000476D01*
X014001Y001864D01*
X014008Y001862D01*
X014145Y001862D01*
X014272Y001915D01*
X014370Y002012D01*
X014423Y002139D01*
X014423Y002277D01*
X014370Y002404D01*
X014272Y002502D01*
X014368Y002407D02*
X014467Y002407D01*
X014467Y002308D02*
X014410Y002308D01*
X014423Y002210D02*
X014467Y002210D01*
X014467Y002111D02*
X014411Y002111D01*
X014370Y002013D02*
X014467Y002013D01*
X014467Y001914D02*
X014271Y001914D01*
X014467Y001816D02*
X013953Y001816D01*
X013854Y001717D02*
X014467Y001717D01*
X014467Y001619D02*
X013756Y001619D01*
X013657Y001520D02*
X014467Y001520D01*
X014467Y001422D02*
X013559Y001422D01*
X013460Y001323D02*
X014467Y001323D01*
X014467Y001225D02*
X013362Y001225D01*
X013263Y001126D02*
X014467Y001126D01*
X014467Y001028D02*
X013165Y001028D01*
X013066Y000929D02*
X014467Y000929D01*
X014467Y000831D02*
X012968Y000831D01*
X012869Y000732D02*
X014467Y000732D01*
X014467Y000634D02*
X012771Y000634D01*
X012672Y000535D02*
X014467Y000535D01*
X014467Y002702D02*
X014273Y002702D01*
X014370Y002801D02*
X014467Y002801D01*
X014467Y002899D02*
X014411Y002899D01*
X014423Y002998D02*
X014467Y002998D01*
X014467Y003096D02*
X014409Y003096D01*
X014367Y003195D02*
X014467Y003195D01*
X014467Y003293D02*
X014263Y003293D01*
X014467Y003392D02*
X012138Y003392D01*
X012236Y003293D02*
X013890Y003293D01*
X013786Y003195D02*
X012335Y003195D01*
X012039Y003490D02*
X014467Y003490D01*
X014467Y003589D02*
X011941Y003589D01*
X011842Y003687D02*
X014467Y003687D01*
X014467Y003786D02*
X011744Y003786D01*
X011645Y003884D02*
X014467Y003884D01*
X009908Y003589D02*
X006746Y003589D01*
X006546Y003589D02*
X005021Y003589D01*
X005149Y003490D02*
X006542Y003490D01*
X006742Y003490D02*
X009785Y003490D01*
X009661Y003392D02*
X007645Y003392D01*
X007540Y003392D02*
X006739Y003392D01*
X006539Y003392D02*
X005241Y003392D01*
X004850Y003687D02*
X006549Y003687D01*
X006553Y003786D02*
X004679Y003786D01*
X004660Y003797D02*
X004660Y003797D01*
X004277Y003884D02*
X006556Y003884D01*
X002745Y003884D02*
X001048Y003884D01*
X001114Y003786D02*
X002745Y003786D01*
X002745Y003687D02*
X001155Y003687D01*
X001160Y003589D02*
X002745Y003589D01*
X002649Y003490D02*
X001986Y003490D01*
X002081Y003392D02*
X002550Y003392D01*
X002452Y003293D02*
X002122Y003293D01*
X002134Y003195D02*
X002353Y003195D01*
X002255Y003096D02*
X002124Y003096D01*
X002156Y002998D02*
X002083Y002998D01*
X002497Y002801D02*
X002557Y002801D01*
X002527Y002702D02*
X002398Y002702D01*
X002300Y002604D02*
X002497Y002604D01*
X002466Y002505D02*
X002149Y002505D01*
X002149Y002407D02*
X002449Y002407D01*
X002449Y002308D02*
X002149Y002308D01*
X002149Y002210D02*
X002449Y002210D01*
X002449Y002111D02*
X002149Y002111D01*
X002149Y002013D02*
X002449Y002013D01*
X002465Y001914D02*
X002149Y001914D01*
X002137Y001816D02*
X002496Y001816D01*
X002526Y001717D02*
X001125Y001717D01*
X001125Y001619D02*
X002557Y001619D01*
X002587Y001520D02*
X001987Y001520D01*
X001978Y001530D02*
X001845Y001585D01*
X001701Y001585D01*
X001569Y001530D01*
X001467Y001428D01*
X001412Y001296D01*
X001412Y001152D01*
X001467Y001019D01*
X001569Y000918D01*
X001701Y000863D01*
X001845Y000863D01*
X001978Y000918D01*
X002079Y001019D01*
X002134Y001152D01*
X002134Y001296D01*
X002079Y001428D01*
X001978Y001530D01*
X002082Y001422D02*
X002651Y001422D01*
X002718Y001323D02*
X002123Y001323D01*
X002134Y001225D02*
X002785Y001225D01*
X002852Y001126D02*
X002123Y001126D01*
X002083Y001028D02*
X002970Y001028D01*
X002859Y001116D02*
X002859Y001116D01*
X003093Y000929D02*
X001989Y000929D01*
X001557Y000929D02*
X001156Y000929D01*
X001115Y001028D02*
X001464Y001028D01*
X001423Y001126D02*
X001050Y001126D01*
X000933Y001225D02*
X001412Y001225D01*
X001424Y001323D02*
X000300Y001323D01*
X000300Y001225D02*
X000488Y001225D01*
X000370Y001126D02*
X000300Y001126D01*
X000300Y001028D02*
X000305Y001028D01*
X001160Y000831D02*
X003217Y000831D01*
X003450Y000732D02*
X001156Y000732D01*
X001115Y000634D02*
X003792Y000634D01*
X001464Y001422D02*
X001073Y001422D01*
X001125Y001520D02*
X001559Y001520D01*
X001410Y001816D02*
X001125Y001816D01*
X001125Y001914D02*
X001397Y001914D01*
X001397Y002013D02*
X001125Y002013D01*
X001125Y002111D02*
X001397Y002111D01*
X001397Y002210D02*
X001074Y002210D01*
X001125Y002308D02*
X001397Y002308D01*
X001397Y002407D02*
X001125Y002407D01*
X001125Y002505D02*
X001397Y002505D01*
X001397Y002604D02*
X001125Y002604D01*
X001125Y002702D02*
X001397Y002702D01*
X001397Y002801D02*
X001125Y002801D01*
X001125Y002899D02*
X001452Y002899D01*
X001463Y002998D02*
X001070Y002998D01*
X001422Y003096D02*
X000300Y003096D01*
X000300Y003195D02*
X000481Y003195D01*
X000367Y003293D02*
X000300Y003293D01*
X000300Y003392D02*
X000304Y003392D01*
X000940Y003195D02*
X001412Y003195D01*
X001424Y003293D02*
X001053Y003293D01*
X001116Y003392D02*
X001465Y003392D01*
X001560Y003490D02*
X001157Y003490D01*
X000350Y002998D02*
X000300Y002998D01*
X000300Y001422D02*
X000347Y001422D01*
D19*
X001773Y001696D02*
X002344Y001696D01*
X002344Y001066D01*
X005809Y000830D02*
X006163Y000830D01*
X006399Y001224D01*
X006399Y001303D01*
X006675Y001303D01*
X006675Y002208D01*
X006301Y002208D01*
X006301Y001834D02*
X006025Y001834D01*
X005809Y001618D01*
X006301Y002582D02*
X006301Y003192D01*
X006320Y003192D01*
X006399Y003862D01*
X011399Y003862D01*
X012187Y003074D01*
X012187Y002996D01*
X014076Y002996D01*
X014076Y002208D02*
X012423Y000555D01*
X008958Y000555D01*
X001813Y002759D02*
X001773Y002720D01*
X001813Y002759D02*
X002187Y002759D01*
X002935Y003507D01*
X002935Y003881D01*
X005218Y003881D01*
X005789Y003547D01*
X005907Y003192D02*
X005218Y003881D01*
X007187Y003507D02*
X007108Y003192D01*
X006320Y003192D02*
X005907Y003192D01*
X007187Y003507D02*
X007895Y003507D01*
D20*
X007895Y003507D03*
X005789Y003547D03*
X005809Y001618D03*
X005809Y000830D03*
X002344Y001066D03*
M02*
