G75*
%MOIN*%
%OFA0B0*%
%FSLAX24Y24*%
%IPPOS*%
%LPD*%
%AMOC8*
5,1,8,0,0,1.08239X$1,22.5*
%
%ADD10C,0.0000*%
%ADD11C,0.0030*%
%ADD12C,0.0050*%
%ADD13C,0.0060*%
%ADD14C,0.0040*%
D10*
X000100Y000105D02*
X000100Y006798D01*
X011517Y006798D01*
X011517Y000105D01*
X000100Y000105D01*
X006937Y001680D02*
X006939Y001730D01*
X006945Y001781D01*
X006955Y001830D01*
X006968Y001879D01*
X006986Y001926D01*
X007007Y001972D01*
X007032Y002016D01*
X007060Y002058D01*
X007091Y002098D01*
X007125Y002135D01*
X007162Y002169D01*
X007202Y002200D01*
X007244Y002228D01*
X007288Y002253D01*
X007334Y002274D01*
X007381Y002292D01*
X007430Y002305D01*
X007479Y002315D01*
X007530Y002321D01*
X007580Y002323D01*
X007630Y002321D01*
X007681Y002315D01*
X007730Y002305D01*
X007779Y002292D01*
X007826Y002274D01*
X007872Y002253D01*
X007916Y002228D01*
X007958Y002200D01*
X007998Y002169D01*
X008035Y002135D01*
X008069Y002098D01*
X008100Y002058D01*
X008128Y002016D01*
X008153Y001972D01*
X008174Y001926D01*
X008192Y001879D01*
X008205Y001830D01*
X008215Y001781D01*
X008221Y001730D01*
X008223Y001680D01*
X008221Y001630D01*
X008215Y001579D01*
X008205Y001530D01*
X008192Y001481D01*
X008174Y001434D01*
X008153Y001388D01*
X008128Y001344D01*
X008100Y001302D01*
X008069Y001262D01*
X008035Y001225D01*
X007998Y001191D01*
X007958Y001160D01*
X007916Y001132D01*
X007872Y001107D01*
X007826Y001086D01*
X007779Y001068D01*
X007730Y001055D01*
X007681Y001045D01*
X007630Y001039D01*
X007580Y001037D01*
X007530Y001039D01*
X007479Y001045D01*
X007430Y001055D01*
X007381Y001068D01*
X007334Y001086D01*
X007288Y001107D01*
X007244Y001132D01*
X007202Y001160D01*
X007162Y001191D01*
X007125Y001225D01*
X007091Y001262D01*
X007060Y001302D01*
X007032Y001344D01*
X007007Y001388D01*
X006986Y001434D01*
X006968Y001481D01*
X006955Y001530D01*
X006945Y001579D01*
X006939Y001630D01*
X006937Y001680D01*
X006937Y005223D02*
X006939Y005273D01*
X006945Y005324D01*
X006955Y005373D01*
X006968Y005422D01*
X006986Y005469D01*
X007007Y005515D01*
X007032Y005559D01*
X007060Y005601D01*
X007091Y005641D01*
X007125Y005678D01*
X007162Y005712D01*
X007202Y005743D01*
X007244Y005771D01*
X007288Y005796D01*
X007334Y005817D01*
X007381Y005835D01*
X007430Y005848D01*
X007479Y005858D01*
X007530Y005864D01*
X007580Y005866D01*
X007630Y005864D01*
X007681Y005858D01*
X007730Y005848D01*
X007779Y005835D01*
X007826Y005817D01*
X007872Y005796D01*
X007916Y005771D01*
X007958Y005743D01*
X007998Y005712D01*
X008035Y005678D01*
X008069Y005641D01*
X008100Y005601D01*
X008128Y005559D01*
X008153Y005515D01*
X008174Y005469D01*
X008192Y005422D01*
X008205Y005373D01*
X008215Y005324D01*
X008221Y005273D01*
X008223Y005223D01*
X008221Y005173D01*
X008215Y005122D01*
X008205Y005073D01*
X008192Y005024D01*
X008174Y004977D01*
X008153Y004931D01*
X008128Y004887D01*
X008100Y004845D01*
X008069Y004805D01*
X008035Y004768D01*
X007998Y004734D01*
X007958Y004703D01*
X007916Y004675D01*
X007872Y004650D01*
X007826Y004629D01*
X007779Y004611D01*
X007730Y004598D01*
X007681Y004588D01*
X007630Y004582D01*
X007580Y004580D01*
X007530Y004582D01*
X007479Y004588D01*
X007430Y004598D01*
X007381Y004611D01*
X007334Y004629D01*
X007288Y004650D01*
X007244Y004675D01*
X007202Y004703D01*
X007162Y004734D01*
X007125Y004768D01*
X007091Y004805D01*
X007060Y004845D01*
X007032Y004887D01*
X007007Y004931D01*
X006986Y004977D01*
X006968Y005024D01*
X006955Y005073D01*
X006945Y005122D01*
X006939Y005173D01*
X006937Y005223D01*
D11*
X009958Y004513D02*
X010019Y004451D01*
X010081Y004451D01*
X010143Y004513D01*
X010143Y004821D01*
X010204Y004821D02*
X010081Y004821D01*
X010326Y004760D02*
X010388Y004821D01*
X010511Y004821D01*
X010573Y004760D01*
X010573Y004698D01*
X010326Y004451D01*
X010573Y004451D01*
X003683Y003467D02*
X003436Y003467D01*
X003560Y003467D02*
X003560Y003837D01*
X003436Y003714D01*
X003315Y003837D02*
X003315Y003528D01*
X003253Y003467D01*
X003129Y003467D01*
X003068Y003528D01*
X003068Y003837D01*
X001911Y005238D02*
X001664Y005238D01*
X001788Y005238D02*
X001788Y005609D01*
X001664Y005485D01*
X001543Y005609D02*
X001420Y005609D01*
X001481Y005609D02*
X001481Y005300D01*
X001420Y005238D01*
X001358Y005238D01*
X001296Y005300D01*
X003068Y005694D02*
X003129Y005632D01*
X003253Y005632D01*
X003315Y005694D01*
X003436Y005632D02*
X003683Y005632D01*
X003560Y005632D02*
X003560Y006002D01*
X003436Y005879D01*
X003315Y005941D02*
X003253Y006002D01*
X003129Y006002D01*
X003068Y005941D01*
X003068Y005694D01*
X003107Y002059D02*
X002983Y002059D01*
X002922Y001997D01*
X002922Y001750D01*
X002983Y001689D01*
X003107Y001689D01*
X003169Y001750D01*
X003290Y001689D02*
X003537Y001936D01*
X003537Y001997D01*
X003475Y002059D01*
X003352Y002059D01*
X003290Y001997D01*
X003169Y001997D02*
X003107Y002059D01*
X003290Y001689D02*
X003537Y001689D01*
D12*
X001773Y002172D02*
X000139Y002172D01*
X000139Y005125D01*
X001773Y005125D01*
X001773Y002172D01*
X002750Y003149D02*
X003750Y003149D01*
X003750Y004149D01*
X002750Y004149D01*
X002750Y003149D01*
X009352Y001877D02*
X011320Y001877D01*
X011320Y005026D01*
X009352Y005026D01*
X009352Y001877D01*
D13*
X005128Y003028D02*
X005128Y004269D01*
X004128Y004269D02*
X004128Y003028D01*
D14*
X004254Y005243D02*
X004561Y005243D01*
X004714Y005243D02*
X005021Y005243D01*
X004868Y005243D02*
X004868Y005704D01*
X004714Y005550D01*
X004254Y005704D02*
X004254Y005243D01*
M02*
